<svg xmlns="http://www.w3.org/2000/svg" width="348" height="282.2" viewBox="0 0 348 282.2">
  <g>
    <ellipse cx="178.5" cy="148.5" rx="56.77" ry="48.5"/>
    <path d="M290.31,28.24H234V10.31A10.315,10.315,0,0,0,223.69,0H123.31A10.315,10.315,0,0,0,113,10.31V28.24H57.69A57.69,57.69,0,0,0,0,85.92V224.53A57.675,57.675,0,0,0,57.69,282.2H290.31A57.675,57.675,0,0,0,348,224.53V85.92A57.69,57.69,0,0,0,290.31,28.24ZM178.5,218C134.11,218,98,186.82,98,148.5S134.11,79,178.5,79,259,110.17,259,148.5,222.89,218,178.5,218Z"/>
    <ellipse cx="178.5" cy="148.5" rx="56.77" ry="48.5"/>
    <ellipse cx="178.5" cy="148.5" rx="56.77" ry="48.5"/>
  </g>
</svg>
