<svg xmlns="http://www.w3.org/2000/svg" width="402" height="402" viewBox="0 0 402 402">
  <g>
    <path d="M397.5,182.46v37.08a13.96,13.96,0,0,1-13.96,13.96H337.72a139.368,139.368,0,0,1-17.07,41.19l32.41,32.41a13.948,13.948,0,0,1,0,19.73l-26.23,26.23a13.948,13.948,0,0,1-19.73,0l-32.41-32.41a139.368,139.368,0,0,1-41.19,17.07v45.82a13.96,13.96,0,0,1-13.96,13.96H182.46a13.96,13.96,0,0,1-13.96-13.96V337.72a139.368,139.368,0,0,1-41.19-17.07L94.9,353.06a13.948,13.948,0,0,1-19.73,0L48.94,326.83a13.948,13.948,0,0,1,0-19.73l32.41-32.41A139.368,139.368,0,0,1,64.28,233.5H18.46A13.96,13.96,0,0,1,4.5,219.54V182.46A13.96,13.96,0,0,1,18.46,168.5H64.28a139.368,139.368,0,0,1,17.07-41.19L48.94,94.9a13.948,13.948,0,0,1,0-19.73L75.17,48.94a13.948,13.948,0,0,1,19.73,0l32.41,32.41A139.368,139.368,0,0,1,168.5,64.28V18.46A13.96,13.96,0,0,1,182.46,4.5h37.08A13.96,13.96,0,0,1,233.5,18.46V64.28a139.368,139.368,0,0,1,41.19,17.07L307.1,48.94a13.948,13.948,0,0,1,19.73,0l26.23,26.23a13.948,13.948,0,0,1,0,19.73l-32.41,32.41a139.368,139.368,0,0,1,17.07,41.19h45.82A13.96,13.96,0,0,1,397.5,182.46Z" stroke="#f2f2f2" stroke-miterlimit="10" stroke-width="9"/>
    <circle cx="201" cy="201" r="40.5" fill="#fff" stroke="#f2f2f2" stroke-miterlimit="10" stroke-width="9"/>
  </g>
</svg>
