<svg xmlns="http://www.w3.org/2000/svg" width="383.331" height="281.346" viewBox="0 0 383.331 281.346">
  <g>
    <path d="M378.831,134.01c0,71.53-81.04,129.51-181,129.51-34.9,0-67.49-7.06-95.13-19.31L9.431,273.65l37.75-67.85c-19.18-20.55-30.35-45.24-30.35-71.79,0-71.53,81.04-129.51,181-129.51S378.831,62.48,378.831,134.01Z" fill="none" stroke="#000" stroke-miterlimit="10" stroke-width="9"/>
    <polygon points="125.642 172.97 121.482 174.541 117.144 175.517 112.712 175.88 108.273 175.623 103.913 174.751 99.717 173.28 95.766 171.24 92.137 168.669 88.902 165.619 86.123 162.148 83.853 158.323 82.139 154.221 81.011 149.919 80.494 145.503 80.596 141.058 81.315 136.67 82.639 132.424 84.54 128.405 86.983 124.689 89.918 121.349 93.29 118.45 97.033 116.049 101.073 114.192 105.332 112.915 109.728 112.244 114.174 112.191 118.585 112.757 122.874 113.931 126.957 115.691 130.756 118.002 134.196 120.82 137.211 124.088 139.741 127.745 141.738 131.718 143.163 135.93 143.987 140.3 144.196 144.742 143.784 149.169 142.76 153.496 141.143 157.639 138.966 161.516 136.271 165.052 133.109 168.179 129.543 170.836 125.642 172.97" stroke="#000" stroke-miterlimit="10" stroke-width="9"/>
    <polygon points="219.642 172.97 215.482 174.541 211.144 175.517 206.712 175.88 202.273 175.623 197.913 174.751 193.717 173.28 189.766 171.24 186.137 168.669 182.902 165.619 180.123 162.148 177.853 158.323 176.139 154.221 175.011 149.919 174.494 145.503 174.596 141.058 175.315 136.67 176.639 132.424 178.54 128.405 180.983 124.689 183.918 121.349 187.29 118.45 191.033 116.049 195.073 114.192 199.332 112.915 203.728 112.244 208.174 112.191 212.585 112.757 216.874 113.931 220.957 115.691 224.756 118.002 228.196 120.82 231.211 124.088 233.741 127.745 235.738 131.718 237.163 135.93 237.987 140.3 238.196 144.742 237.784 149.169 236.76 153.496 235.143 157.639 232.966 161.516 230.271 165.052 227.109 168.179 223.543 170.836 219.642 172.97" stroke="#000" stroke-miterlimit="10" stroke-width="9"/>
    <polygon points="313.642 172.97 309.482 174.541 305.144 175.517 300.712 175.88 296.273 175.623 291.913 174.751 287.717 173.28 283.766 171.24 280.137 168.669 276.902 165.619 274.123 162.148 271.853 158.323 270.139 154.221 269.011 149.919 268.494 145.503 268.596 141.058 269.315 136.67 270.639 132.424 272.54 128.405 274.983 124.689 277.918 121.349 281.29 118.45 285.033 116.049 289.073 114.192 293.332 112.915 297.728 112.244 302.174 112.191 306.585 112.757 310.874 113.931 314.957 115.691 318.756 118.002 322.196 120.82 325.211 124.088 327.741 127.745 329.738 131.718 331.163 135.93 331.987 140.3 332.196 144.742 331.784 149.169 330.76 153.496 329.143 157.639 326.966 161.516 324.271 165.052 321.109 168.179 317.543 170.836 313.642 172.97" stroke="#000" stroke-miterlimit="10" stroke-width="9"/>
  </g>
</svg>
