<svg xmlns="http://www.w3.org/2000/svg" width="492.85" height="323.958" viewBox="0 0 492.85 323.958">
  <g>
    <g>
      <path d="M11.9,319.458a6.531,6.531,0,0,1-5.755-3.064c-1.593-2.619-1.257-6.158,1-10.518,3.47-6.729,9.159-18.3,12.679-25.778a341.346,341.346,0,0,0,12.554-31.775c3.112-9.3,5.387-29.4,4.971-43.9-.44-14.954-2.9-36.572-5.482-48.186-2.653-11.861-6.165-25.408-7.827-30.194-1.474-4.265-3.555-7.56-4.383-8.33-3.4-1.919-9.073-8.593-11.662-11.938-4.222-5.337-3.871-9.034-2.828-11.19a6.922,6.922,0,0,1,6.572-3.751,12.34,12.34,0,0,1,2.222.216c5.4.971,14.535,4.939,20.78,9.029a83.659,83.659,0,0,1,18.734,17.871,131.128,131.128,0,0,1,12.9,24.526c2.131,5.57,5.055,13.259,7.408,19.444l2.166,5.7c2.568,6.77,5.533,12.717,6.53,14a5.874,5.874,0,0,0,3.22,1.84,5.153,5.153,0,0,0,2.54-.812A12.78,12.78,0,0,0,89.573,178a13.1,13.1,0,0,0-1.7-6.367c-1.665-2.608-1.917-5.384-.692-7.619a6.6,6.6,0,0,1,6.04-3.308c.259,0,.528.011.807.035,3.917.329,10.273,3.447,14.524,6.357a8.326,8.326,0,0,0,4.549,1.137h0a12.351,12.351,0,0,0,6.721-1.943l23.923-16.357c8.633-5.909,23.761-16.564,33.4-23.45,9.974-7.156,19.271-16.185,20.916-19.474,1.707-3.414,4.563-15.583,5.931-27.588,1.287-11.412,1.815-27.129,1.177-35.03-.678-8.346-2.1-16.8-2.945-19.164A46.02,46.02,0,0,0,195.805,14.6c-2.54-3.136-1.938-5.658-1.354-6.882.574-1.2,2.1-3.221,5.869-3.221,2.542,0,6.1.9,10.588,2.673,8.6,3.38,19.392,8.787,24.052,12.051a131.113,131.113,0,0,1,16.225,14.137c4.373,4.6,12.825,15.918,19.242,25.778,5.7,8.733,13.591,14.31,16.519,14.31,5.489-.462,15.3-1.181,21.651-1.61,4.761-.306,11.324-.5,16.734-.5,2.213,0,4.127.032,5.688.1a85.958,85.958,0,0,1,18.72,2.986C354.216,75.859,365.532,80.6,374.991,85c9.528,4.433,20.633,10.081,24.757,12.59,3.857,2.375,14.266,8.017,23.223,12.591,8.829,4.528,21.361,10.362,27.945,13.009a146.893,146.893,0,0,0,21.876,6.519c2.269.42,13.72,2.837,15.112,9.021a35.617,35.617,0,0,1,.064,10.805c-.605,4.138-4.168,9.943-8.287,13.507a105.691,105.691,0,0,0-10.6,10.986c-3.079,3.785-7.966,9.575-10.9,12.909a39.435,39.435,0,0,0-5.874,8.416c-1.337,3.92-7.366,9.138-10.37,11.354-4.472,3.3-17.766,10.509-30.264,16.407-8.959,4.239-16.144,7.734-19.986,9.67a54.9,54.9,0,0,0,4.053,5.77c3.9,4.927,13.247,13.922,20.414,19.643,2.118,1.675,8.611,6.811,6.724,12.24-.57,1.638-2.307,4.385-7.547,4.385a21.687,21.687,0,0,1-3.514-.323c-8.337-1.387-22.443-6.82-31.445-12.111-8.72-5.148-19.456-12.072-23.939-15.44-.785-.533-5.466-1.959-17.261-1.959a187.917,187.917,0,0,0-23.7,1.622c-20.169,2.677-44.351,5.02-53.9,5.222-9.52.226-18.454,2.642-20.417,4.206-3.359,2.68-13.612,10.107-23.341,16.908a334.369,334.369,0,0,1-38.5,22.292,287.973,287.973,0,0,1-42.666,15.853c-11.963,3.139-28.142,5.881-36.073,6.112-.433.014-.867.021-1.29.021-6.931,0-11.173-1.767-12.61-5.253a6.533,6.533,0,0,1,1.808-7.224c3-3.015,13.691-11.934,24.315-20.286,10.329-8.143,25.743-21.439,34.356-29.636q1.789-1.7,3.35-3.249a60.6,60.6,0,0,1-12.4,3.42,195.769,195.769,0,0,1-21.328,1.245c-2.61,0-9.545,0-10.75-5.082-.4-1.69-.319-4.905,4.735-7.445,3.95-1.966,6.939-4.935,7.372-5.912.889-2.454,2.537-6.659,3.663-9.346a1.523,1.523,0,0,0,.076-.232,8.242,8.242,0,0,0-3.372,2.232c-2.954,3.178-9.551,8.1-15.039,11.238a16.119,16.119,0,0,1-7.644,2.412,6.735,6.735,0,0,1-5.458-2.459,6.936,6.936,0,0,1-1.091-6.129,81.694,81.694,0,0,0,1.872-10.258,13.037,13.037,0,0,0-4.433,1.831c-1.25.863-4.438,5.024-6.532,9.423-2.276,4.758-8.876,17.784-14.415,28.452-5.885,11.309-16.244,26.269-23.1,33.351-6.823,7.055-17.683,15.648-24.208,19.154A14.138,14.138,0,0,1,11.9,319.458Z"/>
      <path d="M200.32,9c1.842,0,4.947.781,8.933,2.358,8.325,3.272,18.741,8.481,23.126,11.552a125.805,125.805,0,0,1,15.547,13.554c4.173,4.386,12.587,15.693,18.73,25.13,5.974,9.156,14.958,16.354,20.29,16.354.151,0,.3,0,.444-.017,5.252-.446,14.934-1.158,21.511-1.6,4.725-.3,11.15-.493,16.428-.493,2.07,0,3.962.029,5.508.092a82.192,82.192,0,0,1,17.55,2.783c4.15,1.335,15.28,5.987,24.706,10.371s20.366,9.95,24.316,12.353c3.941,2.427,14.534,8.169,23.516,12.755,8.981,4.606,21.724,10.527,28.312,13.176a150.233,150.233,0,0,0,22.725,6.767c5.9,1.09,11.106,3.606,11.552,5.586a31.409,31.409,0,0,1,0,9.171c-.446,3.049-3.484,7.9-6.777,10.749a109.565,109.565,0,0,0-11.151,11.553c-2.861,3.516-7.713,9.282-10.784,12.776s-6.111,7.991-6.767,9.971c-.668,1.959-4.608,6.077-8.769,9.148s-17.44,10.261-29.514,15.959c-12.042,5.7-22.626,10.884-23.516,11.552-.868.668,1.815,5.5,5.976,10.751,4.174,5.274,13.689,14.423,21.134,20.366,6.453,5.1,7.054,8.608,1.986,8.608a17.159,17.159,0,0,1-2.777-.262c-7.889-1.313-21.344-6.522-29.9-11.552-8.558-5.052-19.13-11.863-23.515-15.158-2.517-1.878-10.147-2.861-19.966-2.861a191.008,191.008,0,0,0-24.283,1.66c-19.953,2.648-43.98,4.986-53.407,5.185-9.426.224-19.832,2.561-23.126,5.187s-13.689,10.149-23.115,16.738a330.187,330.187,0,0,1-37.871,21.924A283.287,283.287,0,0,1,135.5,306.742c-11.618,3.049-27.4,5.742-35.055,5.965-.4.013-.783.019-1.159.019-6.93,0-10.335-2.1-7.633-4.782,2.859-2.871,13.622-11.842,23.927-19.943,10.3-8.125,25.908-21.568,34.677-29.915,8.782-8.325,15.047-15.669,13.957-16.314a1.612,1.612,0,0,0-.817-.165c-1.776,0-5.493,1.326-9.155,3.348a58.376,58.376,0,0,1-16.75,5.586,191.752,191.752,0,0,1-20.711,1.2c-6.577,0-8.379-1.8-3.994-4.007,4.384-2.181,8.692-5.943,9.57-8.369s2.494-6.543,3.594-9.17.19-5.519-2-6.366a3.682,3.682,0,0,0-1.384-.244c-2.23,0-5.245,1.508-7.375,3.828-2.648,2.849-8.925,7.5-13.955,10.373a12.034,12.034,0,0,1-5.413,1.82c-1.778,0-2.663-1.027-2.177-3.023a83.279,83.279,0,0,0,2-11.173c.211-2.627-1.391-4.764-3.595-4.764a16.349,16.349,0,0,0-7.957,2.783c-2.192,1.513-5.787,6.544-7.979,11.151s-8.648,17.339-14.346,28.312c-5.7,10.951-15.747,25.485-22.336,32.3-6.565,6.788-16.971,15.023-23.1,18.317a10.122,10.122,0,0,1-4.438,1.45c-2.6,0-3.061-2.566-.76-7.014,3.283-6.366,9.037-18.029,12.755-25.931,3.739-7.9,9.481-22.413,12.753-32.273,3.306-9.883,5.632-30.316,5.2-45.451s-2.95-37.17-5.588-49.034c-2.648-11.841-6.221-25.663-7.968-30.694-1.747-5.053-4.629-9.882-6.387-10.751-1.747-.89-6.422-5.719-10.35-10.794-3.539-4.474-3.34-7.686.185-7.686a7.818,7.818,0,0,1,1.406.141c4.819.867,13.422,4.629,19.13,8.368A79.833,79.833,0,0,1,49.82,120.577a126.132,126.132,0,0,1,12.342,23.5c2.86,7.479,7.156,18.786,9.57,25.13,2.415,6.366,5.643,13.176,7.179,15.158a9.988,9.988,0,0,0,6.777,3.583,8.826,8.826,0,0,0,5.966-2.382c1.1-1.336,2.181-4.563,2.4-7.189a17.36,17.36,0,0,0-2.393-9.17c-1.449-2.269-.727-4,1.557-4,.136,0,.278.006.425.019,2.648.222,8.2,2.737,12.363,5.586a12.667,12.667,0,0,0,7.092,1.924,16.766,16.766,0,0,0,9.257-2.725c4.819-3.295,15.592-10.662,23.927-16.36s23.383-16.292,33.476-23.5c10.083-7.233,20.132-16.738,22.325-21.123s5.053-17.472,6.377-29.091c1.313-11.641,1.847-27.777,1.191-35.9-.658-8.1-2.092-17.25-3.194-20.321a50.189,50.189,0,0,0-7.167-11.952C197.808,9.926,198.315,9,200.32,9m0-9c-6.656,0-9.284,4.427-9.932,5.784-.837,1.756-2.328,6.408,1.91,11.64a42.241,42.241,0,0,1,5.679,9.3c.567,1.579,1.982,9.13,2.706,18.039.608,7.529.075,23.177-1.164,34.165-1.361,11.942-4.157,23.422-5.484,26.073-1.163,2.165-8.9,10.22-19.521,17.836-9.6,6.858-24.692,17.489-33.313,23.39L126.393,156.35l-9.114,6.232a7.807,7.807,0,0,1-4.178,1.155,4.576,4.576,0,0,1-2.017-.356c-3.532-2.419-11.034-6.649-16.686-7.123-.385-.032-.786-.05-1.177-.05a11.118,11.118,0,0,0-9.986,5.645c-2.009,3.666-1.694,8.227.843,12.2a9.753,9.753,0,0,1,.972,3.078,110.268,110.268,0,0,1-4.9-11.113L78,160.372c-2.357-6.2-5.294-13.919-7.431-19.506a134.324,134.324,0,0,0-13.432-25.531A89.049,89.049,0,0,0,37.2,96.31c-6.785-4.444-16.445-8.613-22.468-9.7a16.663,16.663,0,0,0-3-.283A11.407,11.407,0,0,0,1.11,92.62C-.2,95.329-1.5,101,4.46,108.563c1.342,1.731,7.5,9.5,12.221,12.6a27.14,27.14,0,0,1,3.1,6.337c1.592,4.584,5.112,18.187,7.691,29.718,2.486,11.179,4.948,32.86,5.374,47.334.4,14.061-1.765,33.449-4.736,42.331-3.119,9.4-8.773,23.712-12.353,31.278-3.515,7.47-9.171,18.971-12.619,25.655C.114,309.659-.17,314.681,2.3,318.733a11.075,11.075,0,0,0,9.6,5.225,18.425,18.425,0,0,0,8.69-2.517c6.989-3.755,18.108-12.536,25.321-19.994s17.7-22.575,23.85-34.4c5.653-10.887,12.147-23.706,14.481-28.583.091-.193.185-.384.28-.574a10.878,10.878,0,0,0,2.309,6.536,11.144,11.144,0,0,0,9,4.18,17.146,17.146,0,0,0,5.894-1.142,10.054,10.054,0,0,0-.064,4.733c.429,1.8,2.092,6.18,8.274,7.806a27.066,27.066,0,0,0,6.855.738c5.427,0,12.77-.365,18.2-.871-8.084,7.191-17.768,15.385-24.968,21.061-9.4,7.387-21.211,17.129-24.721,20.649a11.023,11.023,0,0,0-2.771,12.105c2.2,5.334,7.84,8.039,16.77,8.039q.7,0,1.445-.023c8.329-.243,24.615-2.991,37.054-6.256a293.523,293.523,0,0,0,43.49-16.156,339.961,339.961,0,0,0,39.108-22.646c9.7-6.783,19.943-14.2,23.474-17,1.771-1.068,9.319-3.109,17.836-3.311,9.662-.205,34.066-2.565,54.379-5.261a183.187,183.187,0,0,1,23.1-1.582c9.225,0,13.725.918,14.965,1.358,4.833,3.574,15.2,10.252,23.942,15.411,9.572,5.627,24.061,11.193,33,12.68a25.835,25.835,0,0,0,4.254.384c8.555,0,11.191-5.67,11.8-7.407,2.939-8.452-5.443-15.082-8.2-17.26-6.918-5.523-15.936-14.185-19.66-18.892q-.509-.642-.958-1.239c3.773-1.848,8.921-4.331,15.289-7.344,11.142-5.258,25.792-13,31.01-16.853,1.629-1.2,9.826-7.475,11.908-13.387a40.525,40.525,0,0,1,5.041-7.03c3.319-3.776,8.3-9.708,11.008-13.041a100.353,100.353,0,0,1,10.044-10.413c4.1-3.549,8.913-10.146,9.807-16.266a39.5,39.5,0,0,0-.129-12.468c-1.9-8.459-13.706-11.518-18.692-12.44A141.658,141.658,0,0,1,452.555,119c-6.328-2.544-18.95-8.421-27.523-12.818-8.732-4.459-19.214-10.138-22.9-12.411-4.355-2.649-15.423-8.282-25.238-12.849-9.6-4.464-21.148-9.3-25.746-10.779l-.027-.009-.028-.008A91.148,91.148,0,0,0,331.2,66.935c-1.624-.066-3.6-.1-5.875-.1-5.5,0-12.173.2-17.006.511-6.23.421-15.714,1.115-21.233,1.577-2.213-.632-8.268-5.154-12.9-12.249-5.732-8.806-14.69-21.1-19.747-26.415a134.167,134.167,0,0,0-16.9-14.722c-4.985-3.491-15.965-9.007-25-12.556C207.48.978,203.475,0,200.321,0Z" fill="#f2f2f2"/>
    </g>
    <g>
      <path d="M11.9,319.458a6.531,6.531,0,0,1-5.755-3.064c-1.593-2.619-1.257-6.158,1-10.518,3.47-6.729,9.159-18.3,12.679-25.778a341.346,341.346,0,0,0,12.554-31.775c3.112-9.3,5.387-29.4,4.971-43.9-.44-14.954-2.9-36.572-5.482-48.186-2.653-11.861-6.165-25.408-7.827-30.194-1.474-4.265-3.555-7.56-4.383-8.33-3.4-1.919-9.073-8.593-11.662-11.938-4.222-5.337-3.871-9.034-2.828-11.19a6.922,6.922,0,0,1,6.572-3.751,12.34,12.34,0,0,1,2.222.216c5.4.971,14.535,4.939,20.78,9.029a83.659,83.659,0,0,1,18.734,17.871,131.128,131.128,0,0,1,12.9,24.526c2.131,5.57,5.055,13.259,7.408,19.444l2.166,5.7c2.568,6.77,5.533,12.717,6.53,14a5.874,5.874,0,0,0,3.22,1.84,5.153,5.153,0,0,0,2.54-.812A12.78,12.78,0,0,0,89.573,178a13.1,13.1,0,0,0-1.7-6.367c-1.665-2.608-1.917-5.384-.692-7.619a6.6,6.6,0,0,1,6.04-3.308c.259,0,.528.011.807.035,3.917.329,10.273,3.447,14.524,6.357a8.326,8.326,0,0,0,4.549,1.137h0a12.351,12.351,0,0,0,6.721-1.943l23.923-16.357c8.633-5.909,23.761-16.564,33.4-23.45,9.974-7.156,19.271-16.185,20.916-19.474,1.707-3.414,4.563-15.583,5.931-27.588,1.287-11.412,1.815-27.129,1.177-35.03-.678-8.346-2.1-16.8-2.945-19.164A46.02,46.02,0,0,0,195.805,14.6c-2.54-3.136-1.938-5.658-1.354-6.882.574-1.2,2.1-3.221,5.869-3.221,2.542,0,6.1.9,10.588,2.673,8.6,3.38,19.392,8.787,24.052,12.051a131.113,131.113,0,0,1,16.225,14.137c4.373,4.6,12.825,15.918,19.242,25.778,5.7,8.733,13.591,14.31,16.519,14.31,5.489-.462,15.3-1.181,21.651-1.61,4.761-.306,11.324-.5,16.734-.5,2.213,0,4.127.032,5.688.1a85.958,85.958,0,0,1,18.72,2.986C354.216,75.859,365.532,80.6,374.991,85c9.528,4.433,20.633,10.081,24.757,12.59,3.857,2.375,14.266,8.017,23.223,12.591,8.829,4.528,21.361,10.362,27.945,13.009a146.893,146.893,0,0,0,21.876,6.519c2.269.42,13.72,2.837,15.112,9.021a35.617,35.617,0,0,1,.064,10.805c-.605,4.138-4.168,9.943-8.287,13.507a105.691,105.691,0,0,0-10.6,10.986c-3.079,3.785-7.966,9.575-10.9,12.909a39.435,39.435,0,0,0-5.874,8.416c-1.337,3.92-7.366,9.138-10.37,11.354-4.472,3.3-17.766,10.509-30.264,16.407-8.959,4.239-16.144,7.734-19.986,9.67a54.9,54.9,0,0,0,4.053,5.77c3.9,4.927,13.247,13.922,20.414,19.643,2.118,1.675,8.611,6.811,6.724,12.24-.57,1.638-2.307,4.385-7.547,4.385a21.687,21.687,0,0,1-3.514-.323c-8.337-1.387-22.443-6.82-31.445-12.111-8.72-5.148-19.456-12.072-23.939-15.44-.785-.533-5.466-1.959-17.261-1.959a187.917,187.917,0,0,0-23.7,1.622c-20.169,2.677-44.351,5.02-53.9,5.222-9.52.226-18.454,2.642-20.417,4.206-3.359,2.68-13.612,10.107-23.341,16.908a334.369,334.369,0,0,1-38.5,22.292,287.973,287.973,0,0,1-42.666,15.853c-11.963,3.139-28.142,5.881-36.073,6.112-.433.014-.867.021-1.29.021-6.931,0-11.173-1.767-12.61-5.253a6.533,6.533,0,0,1,1.808-7.224c3-3.015,13.691-11.934,24.315-20.286,10.329-8.143,25.743-21.439,34.356-29.636q1.789-1.7,3.35-3.249a60.6,60.6,0,0,1-12.4,3.42,195.769,195.769,0,0,1-21.328,1.245c-2.61,0-9.545,0-10.75-5.082-.4-1.69-.319-4.905,4.735-7.445,3.95-1.966,6.939-4.935,7.372-5.912.889-2.454,2.537-6.659,3.663-9.346a1.523,1.523,0,0,0,.076-.232,8.242,8.242,0,0,0-3.372,2.232c-2.954,3.178-9.551,8.1-15.039,11.238a16.119,16.119,0,0,1-7.644,2.412,6.735,6.735,0,0,1-5.458-2.459,6.936,6.936,0,0,1-1.091-6.129,81.694,81.694,0,0,0,1.872-10.258,13.037,13.037,0,0,0-4.433,1.831c-1.25.863-4.438,5.024-6.532,9.423-2.276,4.758-8.876,17.784-14.415,28.452-5.885,11.309-16.244,26.269-23.1,33.351-6.823,7.055-17.683,15.648-24.208,19.154A14.138,14.138,0,0,1,11.9,319.458Z"/>
      <path d="M200.32,9c1.842,0,4.947.781,8.933,2.358,8.325,3.272,18.741,8.481,23.126,11.552a125.805,125.805,0,0,1,15.547,13.554c4.173,4.386,12.587,15.693,18.73,25.13,5.974,9.156,14.958,16.354,20.29,16.354.151,0,.3,0,.444-.017,5.252-.446,14.934-1.158,21.511-1.6,4.725-.3,11.15-.493,16.428-.493,2.07,0,3.962.029,5.508.092a82.192,82.192,0,0,1,17.55,2.783c4.15,1.335,15.28,5.987,24.706,10.371s20.366,9.95,24.316,12.353c3.941,2.427,14.534,8.169,23.516,12.755,8.981,4.606,21.724,10.527,28.312,13.176a150.233,150.233,0,0,0,22.725,6.767c5.9,1.09,11.106,3.606,11.552,5.586a31.409,31.409,0,0,1,0,9.171c-.446,3.049-3.484,7.9-6.777,10.749a109.565,109.565,0,0,0-11.151,11.553c-2.861,3.516-7.713,9.282-10.784,12.776s-6.111,7.991-6.767,9.971c-.668,1.959-4.608,6.077-8.769,9.148s-17.44,10.261-29.514,15.959c-12.042,5.7-22.626,10.884-23.516,11.552-.868.668,1.815,5.5,5.976,10.751,4.174,5.274,13.689,14.423,21.134,20.366,6.453,5.1,7.054,8.608,1.986,8.608a17.159,17.159,0,0,1-2.777-.262c-7.889-1.313-21.344-6.522-29.9-11.552-8.558-5.052-19.13-11.863-23.515-15.158-2.517-1.878-10.147-2.861-19.966-2.861a191.008,191.008,0,0,0-24.283,1.66c-19.953,2.648-43.98,4.986-53.407,5.185-9.426.224-19.832,2.561-23.126,5.187s-13.689,10.149-23.115,16.738a330.187,330.187,0,0,1-37.871,21.924A283.287,283.287,0,0,1,135.5,306.742c-11.618,3.049-27.4,5.742-35.055,5.965-.4.013-.783.019-1.159.019-6.93,0-10.335-2.1-7.633-4.782,2.859-2.871,13.622-11.842,23.927-19.943,10.3-8.125,25.908-21.568,34.677-29.915,8.782-8.325,15.047-15.669,13.957-16.314a1.612,1.612,0,0,0-.817-.165c-1.776,0-5.493,1.326-9.155,3.348a58.376,58.376,0,0,1-16.75,5.586,191.752,191.752,0,0,1-20.711,1.2c-6.577,0-8.379-1.8-3.994-4.007,4.384-2.181,8.692-5.943,9.57-8.369s2.494-6.543,3.594-9.17.19-5.519-2-6.366a3.682,3.682,0,0,0-1.384-.244c-2.23,0-5.245,1.508-7.375,3.828-2.648,2.849-8.925,7.5-13.955,10.373a12.034,12.034,0,0,1-5.413,1.82c-1.778,0-2.663-1.027-2.177-3.023a83.279,83.279,0,0,0,2-11.173c.211-2.627-1.391-4.764-3.595-4.764a16.349,16.349,0,0,0-7.957,2.783c-2.192,1.513-5.787,6.544-7.979,11.151s-8.648,17.339-14.346,28.312c-5.7,10.951-15.747,25.485-22.336,32.3-6.565,6.788-16.971,15.023-23.1,18.317a10.122,10.122,0,0,1-4.438,1.45c-2.6,0-3.061-2.566-.76-7.014,3.283-6.366,9.037-18.029,12.755-25.931,3.739-7.9,9.481-22.413,12.753-32.273,3.306-9.883,5.632-30.316,5.2-45.451s-2.95-37.17-5.588-49.034c-2.648-11.841-6.221-25.663-7.968-30.694-1.747-5.053-4.629-9.882-6.387-10.751-1.747-.89-6.422-5.719-10.35-10.794-3.539-4.474-3.34-7.686.185-7.686a7.818,7.818,0,0,1,1.406.141c4.819.867,13.422,4.629,19.13,8.368A79.833,79.833,0,0,1,49.82,120.577a126.132,126.132,0,0,1,12.342,23.5c2.86,7.479,7.156,18.786,9.57,25.13,2.415,6.366,5.643,13.176,7.179,15.158a9.988,9.988,0,0,0,6.777,3.583,8.826,8.826,0,0,0,5.966-2.382c1.1-1.336,2.181-4.563,2.4-7.189a17.36,17.36,0,0,0-2.393-9.17c-1.449-2.269-.727-4,1.557-4,.136,0,.278.006.425.019,2.648.222,8.2,2.737,12.363,5.586a12.667,12.667,0,0,0,7.092,1.924,16.766,16.766,0,0,0,9.257-2.725c4.819-3.295,15.592-10.662,23.927-16.36s23.383-16.292,33.476-23.5c10.083-7.233,20.132-16.738,22.325-21.123s5.053-17.472,6.377-29.091c1.313-11.641,1.847-27.777,1.191-35.9-.658-8.1-2.092-17.25-3.194-20.321a50.189,50.189,0,0,0-7.167-11.952C197.808,9.926,198.315,9,200.32,9m0-9c-6.656,0-9.284,4.427-9.932,5.784-.837,1.756-2.328,6.408,1.91,11.64a42.241,42.241,0,0,1,5.679,9.3c.567,1.579,1.982,9.13,2.706,18.039.608,7.529.075,23.177-1.164,34.165-1.361,11.942-4.157,23.422-5.484,26.073-1.163,2.165-8.9,10.22-19.521,17.836-9.6,6.858-24.692,17.489-33.313,23.39L126.393,156.35l-9.114,6.232a7.807,7.807,0,0,1-4.178,1.155,4.576,4.576,0,0,1-2.017-.356c-3.532-2.419-11.034-6.649-16.686-7.123-.385-.032-.786-.05-1.177-.05a11.118,11.118,0,0,0-9.986,5.645c-2.009,3.666-1.694,8.227.843,12.2a9.753,9.753,0,0,1,.972,3.078,110.268,110.268,0,0,1-4.9-11.113L78,160.372c-2.357-6.2-5.294-13.919-7.431-19.506a134.324,134.324,0,0,0-13.432-25.531A89.049,89.049,0,0,0,37.2,96.31c-6.785-4.444-16.445-8.613-22.468-9.7a16.663,16.663,0,0,0-3-.283A11.407,11.407,0,0,0,1.11,92.62C-.2,95.329-1.5,101,4.46,108.563c1.342,1.731,7.5,9.5,12.221,12.6a27.14,27.14,0,0,1,3.1,6.337c1.592,4.584,5.112,18.187,7.691,29.718,2.486,11.179,4.948,32.86,5.374,47.334.4,14.061-1.765,33.449-4.736,42.331-3.119,9.4-8.773,23.712-12.353,31.278-3.515,7.47-9.171,18.971-12.619,25.655C.114,309.659-.17,314.681,2.3,318.733a11.075,11.075,0,0,0,9.6,5.225,18.425,18.425,0,0,0,8.69-2.517c6.989-3.755,18.108-12.536,25.321-19.994s17.7-22.575,23.85-34.4c5.653-10.887,12.147-23.706,14.481-28.583.091-.193.185-.384.28-.574a10.878,10.878,0,0,0,2.309,6.536,11.144,11.144,0,0,0,9,4.18,17.146,17.146,0,0,0,5.894-1.142,10.054,10.054,0,0,0-.064,4.733c.429,1.8,2.092,6.18,8.274,7.806a27.066,27.066,0,0,0,6.855.738c5.427,0,12.77-.365,18.2-.871-8.084,7.191-17.768,15.385-24.968,21.061-9.4,7.387-21.211,17.129-24.721,20.649a11.023,11.023,0,0,0-2.771,12.105c2.2,5.334,7.84,8.039,16.77,8.039q.7,0,1.445-.023c8.329-.243,24.615-2.991,37.054-6.256a293.523,293.523,0,0,0,43.49-16.156,339.961,339.961,0,0,0,39.108-22.646c9.7-6.783,19.943-14.2,23.474-17,1.771-1.068,9.319-3.109,17.836-3.311,9.662-.205,34.066-2.565,54.379-5.261a183.187,183.187,0,0,1,23.1-1.582c9.225,0,13.725.918,14.965,1.358,4.833,3.574,15.2,10.252,23.942,15.411,9.572,5.627,24.061,11.193,33,12.68a25.835,25.835,0,0,0,4.254.384c8.555,0,11.191-5.67,11.8-7.407,2.939-8.452-5.443-15.082-8.2-17.26-6.918-5.523-15.936-14.185-19.66-18.892q-.509-.642-.958-1.239c3.773-1.848,8.921-4.331,15.289-7.344,11.142-5.258,25.792-13,31.01-16.853,1.629-1.2,9.826-7.475,11.908-13.387a40.525,40.525,0,0,1,5.041-7.03c3.319-3.776,8.3-9.708,11.008-13.041a100.353,100.353,0,0,1,10.044-10.413c4.1-3.549,8.913-10.146,9.807-16.266a39.5,39.5,0,0,0-.129-12.468c-1.9-8.459-13.706-11.518-18.692-12.44A141.658,141.658,0,0,1,452.555,119c-6.328-2.544-18.95-8.421-27.523-12.818-8.732-4.459-19.214-10.138-22.9-12.411-4.355-2.649-15.423-8.282-25.238-12.849-9.6-4.464-21.148-9.3-25.746-10.779l-.027-.009-.028-.008A91.148,91.148,0,0,0,331.2,66.935c-1.624-.066-3.6-.1-5.875-.1-5.5,0-12.173.2-17.006.511-6.23.421-15.714,1.115-21.233,1.577-2.213-.632-8.268-5.154-12.9-12.249-5.732-8.806-14.69-21.1-19.747-26.415a134.167,134.167,0,0,0-16.9-14.722c-4.985-3.491-15.965-9.007-25-12.556C207.48.978,203.475,0,200.321,0Z" fill="#f2f2f2"/>
    </g>
  </g>
</svg>
