<svg xmlns="http://www.w3.org/2000/svg" width="385.082" height="439.354" viewBox="0 0 385.082 439.354">
  <g>
    <g>
      <circle cx="192.082" cy="111" r="110.5"/>
      <path d="M192.082,1a110,110,0,0,1,77.781,187.782A110,110,0,0,1,114.3,33.218,109.281,109.281,0,0,1,192.082,1m0-1a111,111,0,1,0,111,111,111,111,0,0,0-111-111Z"/>
    </g>
    <path d="M342.582,437.5l-148.5.079s-112.5,2.921-154.5-.079S.545,397.258.545,397.258L.582,361.5c-2-86,79-113,100.326-115s27.244,0,27.244,0c16.57,6,39.43,14,65.93,13.449S252.928,246.5,252.928,246.5h14.654c108,1,117,111,117,111v38.526C384.582,421.5,365.582,437.5,342.582,437.5Z" stroke="#000" stroke-miterlimit="10"/>
  </g>
</svg>
