<svg xmlns="http://www.w3.org/2000/svg" viewBox="0 0 492.85 323.96">
      <path d="M11.9 319.46a6.53 6.53 0 01-5.76-3.07c-1.59-2.62-1.26-6.15 1-10.51 3.47-6.73 9.16-18.3 12.68-25.78 3.71-7.85 9.34-22.1 12.55-31.78 3.11-9.3 5.39-29.4 5-43.9-.44-15-2.9-36.57-5.48-48.19C29.21 144.37 25.7 130.82 24 126c-1.47-4.27-3.55-7.56-4.38-8.33-3.4-1.92-9.07-8.6-11.66-11.94-4.22-5.34-3.87-9-2.83-11.19a6.92 6.92 0 016.57-3.75 11.67 11.67 0 012.22.22c5.4 1 14.54 4.93 20.78 9a83.52 83.52 0 0118.74 17.87 130.79 130.79 0 0112.89 24.53c2.15 5.61 5.1 13.36 7.46 19.57l2.12 5.57c2.57 6.77 5.53 12.72 6.53 14a5.8 5.8 0 003.22 1.84 5.17 5.17 0 002.54-.81 12.89 12.89 0 001.37-4.58 13.05 13.05 0 00-1.7-6.36c-1.66-2.64-1.87-5.39-.69-7.64a6.58 6.58 0 016-3.31h.81c3.91.33 10.27 3.45 14.52 6.36a8.38 8.38 0 004.55 1.14 12.31 12.31 0 006.72-2l23.93-16.35c8.63-5.91 23.76-16.57 33.39-23.45 10-7.16 19.28-16.19 20.92-19.48s4.56-15.58 5.93-27.59c1.29-11.41 1.82-27.12 1.18-35-.68-8.34-2.1-16.79-2.95-19.16a45.91 45.91 0 00-6.41-10.63c-2.54-3.13-1.94-5.65-1.36-6.88s2.1-3.22 5.87-3.22c2.54 0 6.1.9 10.59 2.67 8.6 3.38 19.39 8.79 24.05 12a132.67 132.67 0 0116.23 14.14c4.41 4.76 12.85 16.04 19.28 25.9 5.7 8.73 13.57 14.31 16.57 14.31 5.49-.46 15.3-1.18 21.65-1.61 4.76-.31 11.32-.5 16.73-.5 2.21 0 4.13 0 5.69.09a85.89 85.89 0 0118.72 3C354.22 75.86 365.53 80.6 375 85s20.63 10.08 24.76 12.59c3.85 2.37 14.26 8 23.22 12.59s21.36 10.36 27.95 13a146.94 146.94 0 0021.87 6.52c2.27.42 13.72 2.84 15.11 9a35.55 35.55 0 01.07 10.81c-.61 4.13-4.17 9.94-8.29 13.5a106.55 106.55 0 00-10.6 11c-2.69 3.31-7.62 9.18-10.9 12.91a39.3 39.3 0 00-5.87 8.41c-1.34 3.93-7.37 9.14-10.37 11.36-4.48 3.3-17.77 10.51-30.27 16.4-9 4.24-16.14 7.74-20 9.68a54.6 54.6 0 004.05 5.77c3.9 4.92 13.25 13.92 20.41 19.64 2.12 1.67 8.61 6.81 6.73 12.24-.57 1.64-2.31 4.38-7.55 4.38a22.07 22.07 0 01-3.51-.32c-8.34-1.39-22.45-6.82-31.45-12.11-8.71-5.15-19.45-12.07-23.94-15.44-.78-.53-5.46-2-17.26-2a188.81 188.81 0 00-23.69 1.62c-20.18 2.68-44.36 5-53.9 5.22s-18.46 2.65-20.42 4.21c-3.36 2.68-13.62 10.11-23.34 16.91a334.93 334.93 0 01-38.5 22.29 288.77 288.77 0 01-42.67 15.85c-12 3.14-28.14 5.88-36.07 6.12h-1.29c-6.93 0-11.18-1.77-12.61-5.26a6.52 6.52 0 011.8-7.22c3-3 13.7-11.93 24.32-20.29 10.33-8.14 25.74-21.44 34.36-29.63 1.19-1.13 2.31-2.22 3.35-3.25a60.64 60.64 0 01-12.4 3.42 195.6 195.6 0 01-21.33 1.24c-2.61 0-9.54 0-10.75-5.08-.4-1.69-.32-4.9 4.74-7.44 4-2 6.94-4.94 7.37-5.92.89-2.45 2.54-6.65 3.66-9.34a1.27 1.27 0 00.08-.23 8.19 8.19 0 00-3.37 2.23c-3 3.18-9.55 8.1-15 11.24a16.2 16.2 0 01-7.65 2.41 6.74 6.74 0 01-5.45-2.46 7 7 0 01-1.1-6.13 82.23 82.23 0 001.88-10.26 13 13 0 00-4.44 1.83c-1.25.87-4.44 5-6.53 9.43-2.31 4.84-8.91 17.87-14.44 28.56-5.89 11.31-16.25 26.27-23.1 33.35S25 314 18.46 317.47a14.09 14.09 0 01-6.56 1.99z"/>
</svg>
